<svg xmlns="http://www.w3.org/2000/svg" width="960" height="420" viewBox="0 0 960 420">
  <rect width="960" height="420" fill="#111827" rx="8"/>
  <text x="48" y="28" fill="#f3f4f6" font-family="Arial, sans-serif" font-size="20">Simulation time series</text>
  <text x="48" y="408" fill="#9ca3af" font-family="Arial, sans-serif" font-size="12">green=temp, blue=batch, amber=p99</text>
  <line x1="48" y1="48" x2="48" y2="372" stroke="#374151" />
  <line x1="48" y1="372" x2="912" y2="372" stroke="#374151" />
  <polyline fill="none" stroke="#34d399" stroke-width="3" points="48.0,332.6 52.8,302.6 57.7,273.8 62.5,255.1 67.3,235.7 72.1,221.4 77.0,212.3 81.8,229.9 86.6,248.3 91.4,260.1 96.3,268.5 101.1,275.0 105.9,277.7 110.7,276.5 115.6,281.4 120.4,284.6 125.2,283.8 130.1,255.8 134.9,236.1 139.7,221.4 144.5,204.3 149.4,198.4 154.2,186.6 159.0,181.7 163.8,178.9 168.7,205.9 173.5,226.4 178.3,238.8 183.2,250.0 188.0,255.8 192.8,260.1 197.6,265.9 202.5,269.1 207.3,275.9 212.1,281.5 216.9,245.6 221.8,212.1 226.6,186.8 231.4,171.5 236.2,156.5 241.1,145.3 245.9,133.2 250.7,119.1 255.6,108.1 260.4,103.1 265.2,96.2 270.0,90.9 274.9,83.6 279.7,83.3 284.5,86.8 289.3,83.8 294.2,84.1 299.0,81.9 303.8,77.3 308.6,78.7 313.5,76.8 318.3,83.6 323.1,83.8 328.0,83.0 332.8,79.8 337.6,74.5 342.4,75.0 347.3,72.1 352.1,70.6 356.9,69.4 361.7,69.7 366.6,66.5 371.4,63.0 376.2,64.2 381.1,63.5 385.9,68.1 390.7,66.4 395.5,65.4 400.4,61.7 405.2,60.2 410.0,63.5 414.8,65.3 419.7,64.3 424.5,69.2 429.3,69.3 434.1,72.0 439.0,74.5 443.8,77.1 448.6,73.2 453.5,75.5 458.3,76.3 463.1,75.7 467.9,71.2 472.8,74.3 477.6,73.7 482.4,72.2 487.2,68.2 492.1,65.5 496.9,62.8 501.7,65.8 506.5,66.9 511.4,68.3 516.2,65.0 521.0,61.7 525.9,65.9 530.7,69.0 535.5,71.1 540.3,72.9 545.2,72.2 550.0,70.8 554.8,72.3 559.6,75.7 564.5,75.1 569.3,75.0 574.1,73.2 578.9,68.4 583.8,66.7 588.6,66.9 593.4,66.1 598.3,65.0 603.1,69.4 607.9,118.3 612.7,159.9 617.6,193.4 622.4,221.3 627.2,247.3 632.0,268.6 636.9,289.0 641.7,299.5 646.5,313.0 651.4,324.4 656.2,332.3 661.0,339.0 665.8,342.9 670.7,349.1 675.5,354.7 680.3,357.4 685.1,359.8 690.0,357.3 694.8,357.9 699.6,351.6 704.4,348.8 709.3,350.1 714.1,350.6 718.9,349.6 723.8,348.9 728.6,350.8 733.4,346.1 738.2,331.1 743.1,323.3 747.9,316.8 752.7,314.7 757.5,313.0 762.4,309.5 767.2,307.3 772.0,300.7 776.8,300.9 781.7,302.3 786.5,295.6 791.3,269.1 796.2,250.6 801.0,232.1 805.8,221.3 810.6,208.1 815.5,193.5 820.3,182.4 825.1,174.9 829.9,172.3 834.8,169.4 839.6,197.7 844.4,215.7 849.3,232.4 854.1,239.7 858.9,249.5 863.7,258.5 868.6,260.8 873.4,261.2 878.2,262.7 883.0,264.3 887.9,265.5 892.7,267.2 897.5,273.0 902.3,275.2 907.2,253.7 912.0,239.0"/>
  <polyline fill="none" stroke="#60a5fa" stroke-width="3" points="48.0,67.1 52.8,67.1 57.7,67.1 62.5,67.1 67.3,67.1 72.1,67.1 77.0,219.5 81.8,219.5 86.6,219.5 91.4,219.5 96.3,219.5 101.1,219.5 105.9,219.5 110.7,219.5 115.6,219.5 120.4,219.5 125.2,67.1 130.1,67.1 134.9,67.1 139.7,67.1 144.5,67.1 149.4,67.1 154.2,67.1 159.0,67.1 163.8,219.5 168.7,219.5 173.5,219.5 178.3,219.5 183.2,219.5 188.0,219.5 192.8,219.5 197.6,219.5 202.5,219.5 207.3,219.5 212.1,219.5 216.9,219.5 221.8,219.5 226.6,295.8 231.4,295.8 236.2,295.8 241.1,295.8 245.9,295.8 250.7,295.8 255.6,295.8 260.4,295.8 265.2,295.8 270.0,295.8 274.9,333.9 279.7,333.9 284.5,333.9 289.3,333.9 294.2,333.9 299.0,333.9 303.8,333.9 308.6,333.9 313.5,352.9 318.3,352.9 323.1,352.9 328.0,352.9 332.8,352.9 337.6,352.9 342.4,352.9 347.3,352.9 352.1,352.9 356.9,352.9 361.7,352.9 366.6,352.9 371.4,352.9 376.2,352.9 381.1,352.9 385.9,352.9 390.7,352.9 395.5,352.9 400.4,352.9 405.2,352.9 410.0,352.9 414.8,352.9 419.7,352.9 424.5,352.9 429.3,352.9 434.1,352.9 439.0,352.9 443.8,352.9 448.6,352.9 453.5,352.9 458.3,352.9 463.1,352.9 467.9,352.9 472.8,352.9 477.6,352.9 482.4,352.9 487.2,352.9 492.1,352.9 496.9,352.9 501.7,352.9 506.5,352.9 511.4,352.9 516.2,352.9 521.0,352.9 525.9,352.9 530.7,352.9 535.5,352.9 540.3,352.9 545.2,352.9 550.0,352.9 554.8,352.9 559.6,352.9 564.5,352.9 569.3,352.9 574.1,352.9 578.9,352.9 583.8,352.9 588.6,352.9 593.4,352.9 598.3,352.9 603.1,352.9 607.9,352.9 612.7,352.9 617.6,352.9 622.4,352.9 627.2,352.9 632.0,352.9 636.9,333.9 641.7,333.9 646.5,333.9 651.4,333.9 656.2,333.9 661.0,333.9 665.8,333.9 670.7,333.9 675.5,333.9 680.3,333.9 685.1,295.8 690.0,295.8 694.8,295.8 699.6,295.8 704.4,295.8 709.3,295.8 714.1,295.8 718.9,295.8 723.8,295.8 728.6,295.8 733.4,219.5 738.2,219.5 743.1,219.5 747.9,219.5 752.7,219.5 757.5,219.5 762.4,219.5 767.2,219.5 772.0,219.5 776.8,219.5 781.7,219.5 786.5,67.1 791.3,67.1 796.2,67.1 801.0,67.1 805.8,67.1 810.6,67.1 815.5,67.1 820.3,67.1 825.1,67.1 829.9,67.1 834.8,219.5 839.6,219.5 844.4,219.5 849.3,219.5 854.1,219.5 858.9,219.5 863.7,219.5 868.6,219.5 873.4,219.5 878.2,219.5 883.0,219.5 887.9,219.5 892.7,219.5 897.5,219.5 902.3,67.1 907.2,67.1 912.0,67.1"/>
  <polyline fill="none" stroke="#f59e0b" stroke-width="3" points="48.0,365.1 52.8,365.1 57.7,365.1 62.5,347.8 67.3,329.6 72.1,316.2 77.0,304.0 81.8,324.2 86.6,341.4 91.4,352.4 96.3,360.3 101.1,365.1 105.9,365.1 110.7,365.1 115.6,365.1 120.4,365.1 125.2,361.5 130.1,348.5 134.9,330.0 139.7,316.2 144.5,300.2 149.4,294.6 154.2,283.5 159.0,279.0 163.8,272.8 168.7,301.7 173.5,320.8 178.3,332.5 183.2,343.0 188.0,348.5 192.8,352.4 197.6,357.9 202.5,360.9 207.3,365.1 212.1,365.1 216.9,322.3 221.8,291.0 226.6,267.4 231.4,217.2 236.2,200.6 241.1,193.5 245.9,181.1 250.7,167.0 255.6,158.0 260.4,151.3 265.2,147.7 270.0,140.8 274.9,130.6 279.7,117.3 284.5,117.0 289.3,114.2 294.2,114.2 299.0,115.3 303.8,109.3 308.6,112.4 313.5,104.4 318.3,105.4 323.1,104.2 328.0,107.1 332.8,103.5 337.6,99.4 342.4,95.8 347.3,94.4 352.1,95.4 356.9,91.5 361.7,93.1 366.6,90.3 371.4,85.2 376.2,86.6 381.1,87.1 385.9,92.3 390.7,90.3 395.5,89.4 400.4,86.9 405.2,85.5 410.0,86.7 414.8,86.5 419.7,87.4 424.5,92.8 429.3,94.7 434.1,93.0 439.0,98.2 443.8,100.7 448.6,95.1 453.5,96.5 458.3,100.9 463.1,100.5 467.9,95.6 472.8,94.8 477.6,96.5 482.4,97.1 487.2,90.7 492.1,88.9 496.9,88.3 501.7,91.2 506.5,90.8 511.4,89.4 516.2,88.8 521.0,83.1 525.9,89.9 530.7,93.1 535.5,96.1 540.3,95.4 545.2,96.8 550.0,91.7 554.8,94.7 559.6,100.8 564.5,97.4 569.3,98.0 574.1,95.4 578.9,91.2 583.8,91.9 588.6,90.3 593.4,88.9 598.3,90.4 603.1,90.8 607.9,176.3 612.7,217.7 617.6,249.7 622.4,274.2 627.2,297.6 632.0,317.6 636.9,321.1 641.7,331.9 646.5,332.1 651.4,333.9 656.2,332.3 661.0,331.7 665.8,331.2 670.7,334.2 675.5,334.3 680.3,331.4 685.1,326.5 690.0,351.0 694.8,349.5 699.6,351.9 704.4,352.9 709.3,350.5 714.1,352.4 718.9,349.6 723.8,350.1 728.6,353.4 733.4,348.6 738.2,365.1 743.1,365.1 747.9,365.1 752.7,365.1 757.5,365.1 762.4,365.1 767.2,365.1 772.0,365.1 776.8,365.1 781.7,365.1 786.5,361.5 791.3,360.9 796.2,343.5 801.0,326.2 805.8,316.1 810.6,303.7 815.5,290.0 820.3,279.7 825.1,272.6 829.9,270.2 834.8,263.9 839.6,293.9 844.4,310.8 849.3,326.5 854.1,333.4 858.9,342.5 863.7,351.0 868.6,353.1 873.4,353.5 878.2,355.0 883.0,356.4 887.9,357.6 892.7,359.2 897.5,364.5 902.3,361.5 907.2,346.5 912.0,332.7"/>
</svg>
